<svg width="35" height="28" viewBox="0 0 35 28" fill="none" xmlns="http://www.w3.org/2000/svg">
<path d="M0 0.951416V27.164H34.0764V0.951416H0ZM2.62126 3.57268H31.4551V24.5428H26.9911C26.8889 24.3632 26.9348 24.1181 26.7854 23.9687C26.2912 23.4733 25.5874 23.2321 24.902 23.2321C24.2165 23.2321 23.514 23.4733 23.0173 23.97C22.8692 24.1181 22.9151 24.3632 22.8128 24.5428H11.2636C11.1613 24.3632 11.2072 24.1181 11.0591 23.9687C10.5611 23.4733 9.85987 23.2321 9.17441 23.2321C8.48895 23.2321 7.78646 23.4733 7.28973 23.97C7.14162 24.1181 7.1875 24.3632 7.08527 24.5428H2.62126V3.57268ZM11.7957 6.19394C8.91229 6.19394 6.55315 8.55307 6.55315 11.4365C6.55315 12.8952 7.17832 14.2111 8.15081 15.1639C7.2591 15.7663 6.52803 16.5774 6.02118 17.5267C5.51433 18.476 5.24703 19.5347 5.24252 20.6109H7.86378C7.86378 19.5681 8.27803 18.568 9.01541 17.8306C9.75278 17.0932 10.7529 16.679 11.7957 16.679C12.8385 16.679 13.8386 17.0932 14.5759 17.8306C15.3133 18.568 15.7276 19.5681 15.7276 20.6109H18.3488C18.3443 19.5347 18.077 18.476 17.5702 17.5267C17.0633 16.5774 16.3322 15.7663 15.4405 15.1639C16.413 14.2111 17.0382 12.8965 17.0382 11.4365C17.0382 8.55307 14.6791 6.19394 11.7957 6.19394ZM11.7957 8.8152C13.2596 8.8152 14.4169 9.97248 14.4169 11.4365C14.4169 12.9004 13.2596 14.0577 11.7957 14.0577C10.3317 14.0577 9.17441 12.9004 9.17441 11.4365C9.17441 9.97248 10.3317 8.8152 11.7957 8.8152ZM20.9701 10.1258V12.7471H28.8339V10.1258H20.9701ZM20.9701 15.3683V17.9896H28.8339V15.3683H20.9701Z" fill="#FCC028"/>
</svg>
