<svg width="30" height="28" viewBox="0 0 30 28" fill="none" xmlns="http://www.w3.org/2000/svg">
<path d="M29.6424 11.0978V24.2707C29.6424 25.8772 28.328 27.1916 26.7216 27.1916H3.35492C1.74846 27.1916 0.434082 25.8772 0.434082 24.2707V6.74572C0.434082 5.13926 1.74846 3.82489 3.35492 3.82489H18.1051C18.0175 4.29222 17.9591 4.78876 17.9591 5.2853C17.9591 7.44672 18.9084 9.35987 20.398 10.7034L15.0382 14.0478L3.35492 6.74572V9.66655L15.0382 16.9686L22.7785 12.1201C23.5671 12.4121 24.3849 12.5874 25.2612 12.5874C26.9114 12.5874 28.4157 12.0178 29.6424 11.0978ZM20.8799 5.2853C20.8799 7.70959 22.8369 9.66655 25.2612 9.66655C27.6855 9.66655 29.6424 7.70959 29.6424 5.2853C29.6424 2.86101 27.6855 0.904053 25.2612 0.904053C22.8369 0.904053 20.8799 2.86101 20.8799 5.2853Z" fill="#FCC028"/>
</svg>
