<svg width="35" height="35" viewBox="0 0 35 35" fill="none" xmlns="http://www.w3.org/2000/svg">
<path fill-rule="evenodd" clip-rule="evenodd" d="M23.4275 3.05336H10.6489C10.084 3.05336 9.5423 3.27774 9.14289 3.67715C8.74348 4.07656 8.5191 4.61828 8.5191 5.18313V17.9618C8.5191 18.2442 8.4069 18.5151 8.2072 18.7148C8.00749 18.9145 7.73664 19.0267 7.45421 19.0267C7.17178 19.0267 6.90093 18.9145 6.70122 18.7148C6.50152 18.5151 6.38932 18.2442 6.38932 17.9618V5.18313C6.38932 4.05343 6.8381 2.97 7.63692 2.17118C8.43574 1.37236 9.51917 0.923584 10.6489 0.923584L23.4275 0.923584C24.5572 0.923584 25.6407 1.37236 26.4395 2.17118C27.2383 2.97 27.6871 4.05343 27.6871 5.18313V17.9618C27.6871 18.2442 27.5749 18.5151 27.3752 18.7148C27.1755 18.9145 26.9046 19.0267 26.6222 19.0267C26.3398 19.0267 26.0689 18.9145 25.8692 18.7148C25.6695 18.5151 25.5573 18.2442 25.5573 17.9618V5.18313C25.5573 4.61828 25.3329 4.07656 24.9335 3.67715C24.5341 3.27774 23.9924 3.05336 23.4275 3.05336ZM25.5573 30.7404C25.5573 31.3053 25.3329 31.847 24.9335 32.2464C24.5341 32.6458 23.9924 32.8702 23.4275 32.8702H10.6489C10.084 32.8702 9.5423 32.6458 9.14289 32.2464C8.74348 31.847 8.5191 31.3053 8.5191 30.7404V26.4809C8.5191 26.1985 8.4069 25.9276 8.2072 25.7279C8.00749 25.5282 7.73664 25.416 7.45421 25.416C7.17178 25.416 6.90093 25.5282 6.70122 25.7279C6.50152 25.9276 6.38932 26.1985 6.38932 26.4809V30.7404C6.38932 31.8701 6.8381 32.9536 7.63692 33.7524C8.43574 34.5512 9.51917 35 10.6489 35H23.4275C24.5572 35 25.6407 34.5512 26.4395 33.7524C27.2383 32.9536 27.6871 31.8701 27.6871 30.7404V26.4809C27.6871 26.1985 27.5749 25.9276 27.3752 25.7279C27.1755 25.5282 26.9046 25.416 26.6222 25.416C26.3398 25.416 26.0689 25.5282 25.8692 25.7279C25.6695 25.9276 25.5573 26.1985 25.5573 26.4809V30.7404ZM3.6483 17.8638C3.90475 17.7455 4.10368 17.5301 4.20133 17.2651C4.29899 17.0001 4.28737 16.7071 4.16903 16.4507C4.11044 16.3237 4.02741 16.2095 3.92468 16.1146C3.82196 16.0198 3.70155 15.946 3.57033 15.8977C3.30532 15.8 3.01237 15.8116 2.75593 15.93C2.0169 16.2707 1.36306 16.6711 0.877467 17.1439C0.391878 17.6253 0 18.2578 0 19.0267C0 20.1895 0.868948 21.0287 1.7528 21.5845C2.6899 22.1766 3.97416 22.6707 5.46926 23.0668C8.47224 23.8676 12.5614 24.3511 17.0382 24.3511C17.249 24.3511 17.4578 24.3511 17.6643 24.3468L15.2194 26.7918C15.1204 26.8908 15.0418 27.0084 14.9882 27.1377C14.9347 27.2671 14.9071 27.4057 14.9071 27.5458C14.9071 27.6858 14.9347 27.8244 14.9882 27.9538C15.0418 28.0832 15.1204 28.2007 15.2194 28.2997C15.4193 28.4997 15.6905 28.612 15.9733 28.612C16.1133 28.612 16.252 28.5844 16.3813 28.5308C16.5107 28.4773 16.6282 28.3987 16.7272 28.2997L20.9868 24.0402C21.086 23.9412 21.1646 23.8237 21.2183 23.6943C21.272 23.565 21.2996 23.4263 21.2996 23.2862C21.2996 23.1461 21.272 23.0075 21.2183 22.8781C21.1646 22.7487 21.086 22.6312 20.9868 22.5323L16.7272 18.2727C16.6282 18.1737 16.5107 18.0952 16.3813 18.0416C16.252 17.988 16.1133 17.9604 15.9733 17.9604C15.8333 17.9604 15.6946 17.988 15.5653 18.0416C15.4359 18.0952 15.3184 18.1737 15.2194 18.2727C15.1204 18.3717 15.0418 18.4893 14.9882 18.6186C14.9347 18.748 14.9071 18.8866 14.9071 19.0267C14.9071 19.1667 14.9347 19.3053 14.9882 19.4347C15.0418 19.5641 15.1204 19.6816 15.2194 19.7806L17.658 22.2171L17.0382 22.2213C12.6935 22.2213 8.79597 21.7506 6.01874 21.0095C4.62161 20.6368 3.56737 20.2129 2.88797 19.7849C2.15533 19.3227 2.12977 19.0394 2.12977 19.0267C2.12977 19.0203 2.12977 18.901 2.36831 18.6646C2.61323 18.4261 3.02854 18.1492 3.64617 17.8638H3.6483ZM31.3205 15.93C31.064 15.8116 30.7711 15.8 30.5061 15.8977C30.2411 15.9953 30.0257 16.1943 29.9074 16.4507C29.789 16.7071 29.7774 17.0001 29.8751 17.2651C29.9727 17.5301 30.1716 17.7455 30.4281 17.8638C31.05 18.1492 31.4632 18.4261 31.7059 18.6667C31.9466 18.901 31.9466 19.0203 31.9466 19.0267C31.9466 19.0331 31.9466 19.1651 31.6697 19.4249C31.3886 19.6848 30.9201 19.9787 30.2279 20.2768C28.8542 20.8732 26.8288 21.3907 24.3433 21.74C24.0676 21.7839 23.8201 21.9343 23.6542 22.1589C23.4882 22.3835 23.4172 22.6643 23.4563 22.9408C23.4954 23.2172 23.6415 23.4673 23.8632 23.6371C24.0849 23.8069 24.3644 23.8828 24.6415 23.8485C27.2228 23.4864 29.4548 22.9327 31.0734 22.2341C31.8827 21.8848 32.5919 21.4738 33.118 20.9839C33.6419 20.4962 34.0764 19.8402 34.0764 19.0267C34.0764 18.2557 33.6845 17.621 33.1989 17.1461C32.7133 16.6711 32.0595 16.2707 31.3205 15.93ZM15.9733 5.18313C15.6909 5.18313 15.42 5.29533 15.2203 5.49503C15.0206 5.69474 14.9084 5.96559 14.9084 6.24802C14.9084 6.53045 15.0206 6.8013 15.2203 7.00101C15.42 7.20071 15.6909 7.31291 15.9733 7.31291H18.1031C18.3855 7.31291 18.6564 7.20071 18.8561 7.00101C19.0558 6.8013 19.168 6.53045 19.168 6.24802C19.168 5.96559 19.0558 5.69474 18.8561 5.49503C18.6564 5.29533 18.3855 5.18313 18.1031 5.18313H15.9733Z" fill="#FCC028"/>
</svg>
